#!OML:ASF X:\für Bonn\!DataBase\2005_08_11_Bastian_Final\c3d\Bastian.ASF
:FULLY-SPECIFIED
:DEGREES
145
root -1.2687 16.7486 -6.21392 168.613 21.5721 -173.956
lowerback 5.98934 -0.97329 5.0859
upperback 6.3363 -0.63147 2.24562
thorax 3.1619 0.0640489 -0.491496
lowerneck -6.69997 0.779039 -7.97417
upperneck -4.83233 2.06591 8.6731
head -0.553697 1.30615 4.33512
rclavicle -5.9449e-015 -3.49861e-014
rhumerus -53.2207 20.0459 -105.653
rradius 109.392
rwrist 10.7464
rhand -18.5765 12.4587
rfingers 7.12502
rthumb 7.71391 -17.3806
lclavicle -5.9449e-015 -3.49861e-014
lhumerus -32.8149 -4.96488 79.4513
lradius 82.0113
lwrist 44.447
lhand -4.87674 -12.7012
lfingers 7.12502
lthumb 20.9118 16.1916
rfemur 7.43007 -2.88296 30.0855
rtibia 40.0043
rfoot -207.048 -186.33
rtoes -2.04335
lfemur -5.64962 9.62254 -8.89445
ltibia 67.1019
lfoot -13.85 -0.33737
ltoes -14.9373
146
root -1.28528 16.7255 -6.26783 168.867 21.1447 -173.911
lowerback 5.55066 -1.02397 4.96186
upperback 6.21781 -0.754687 2.20534
thorax 3.27749 -0.0120695 -0.46435
lowerneck -6.74429 0.685886 -7.86799
upperneck -4.64666 1.9262 8.82696
head -0.472369 1.23443 4.36876
rclavicle 2.99978e-014 -4.1546e-014
rhumerus -52.8811 20.0355 -105.983
rradius 109.337
rwrist 10.8053
rhand -18.7236 12.5908
rfingers 7.12502
rthumb 7.57191 -17.2537
lclavicle 2.99978e-014 -4.1546e-014
lhumerus -32.2989 -5.62664 80.1158
lradius 83.9444
lwrist 44.9321
lhand -4.62844 -12.9489
lfingers 7.12502
lthumb 21.1504 15.9174
rfemur 7.09545 -2.75797 30.1387
rtibia 40.5117
rfoot -207.395 -186.846
rtoes -2.30178
lfemur -4.87158 9.22179 -9.29107
ltibia 65.1399
lfoot -14.6497 -1.07559
ltoes -13.9073
147
root -1.30287 16.697 -6.31941 169.082 20.6954 -173.87
lowerback 5.17569 -1.06709 4.84674
upperback 6.09104 -0.860782 2.14284
thorax 3.3499 -0.0795764 -0.466282
lowerneck -6.72186 0.574162 -7.72156
upperneck -4.48792 1.75592 8.9838
head -0.408391 1.14596 4.39388
rclavicle 7.60973e-015 -4.83047e-014
rhumerus -52.6105 19.95 -106.298
rradius 109.377
rwrist 10.7787
rhand -18.8214 12.6852
rfingers 7.12502
rthumb 7.47758 -17.1626
lclavicle 7.60973e-015 -4.83047e-014
lhumerus -31.7788 -6.38928 80.809
lradius 85.8576
lwrist 45.3478
lhand -4.40835 -13.1738
lfingers 7.12502
lthumb 21.3618 15.6687
rfemur 6.74586 -2.62507 30.193
rtibia 41.1057
rfoot -207.685 -187.35
rtoes -2.51323
lfemur -4.09365 8.93917 -9.66007
ltibia 63.2412
lfoot -15.5297 -1.77995
ltoes -13.6758
148
root -1.31936 16.6646 -6.36794 169.24 20.1914 -173.858
lowerback 4.87495 -1.13176 4.63472
upperback 5.98251 -0.988619 2.10052
thorax 3.40083 -0.160372 -0.392946
lowerneck -6.73683 0.472479 -7.58957
upperneck -4.31259 1.60058 9.11955
head -0.33372 1.06629 4.41484
rclavicle 5.34855e-014 -2.49475e-014
rhumerus -52.3723 19.9572 -106.582
rradius 109.479
rwrist 10.6829
rhand -18.9521 12.6749
rfingers 7.12502
rthumb 7.35141 -17.1774
lclavicle 5.34855e-014 -2.49475e-014
lhumerus -31.2644 -7.17371 81.5759
lradius 87.7498
lwrist 45.676
lhand -4.18186 -13.4505
lfingers 7.12502
lthumb 21.5793 15.3672
rfemur 6.40183 -2.5911 30.1902
rtibia 41.7644
rfoot -208.066 -187.797
rtoes -2.81507
lfemur -3.31555 8.69122 -10.0239
ltibia 61.4333
lfoot -16.4668 -2.40635
ltoes -13.8185
149
root -1.33515 16.6316 -6.41538 169.342 19.6354 -173.865
lowerback 4.62582 -1.20445 4.39327
upperback 5.89262 -1.12098 2.03733
thorax 3.44315 -0.242905 -0.324802
lowerneck -6.72098 0.350364 -7.40266
upperneck -4.16713 1.41478 9.23975
head -0.270934 0.970856 4.41786
rclavicle -4.26642e-014 -2.45499e-014
rhumerus -52.1413 19.9222 -106.836
rradius 109.644
rwrist 10.5702
rhand -19.014 12.6195
rfingers 7.12502
rthumb 7.29162 -17.2349
lclavicle -4.26642e-014 -2.45499e-014
lhumerus -30.7466 -8.04921 82.3638
lradius 89.6264
lwrist 45.8847
lhand -4.00967 -13.7043
lfingers 7.12502
lthumb 21.7447 15.0943
rfemur 6.09046 -2.58798 30.1587
rtibia 42.4467
rfoot -208.493 -188.184
rtoes -2.8407
lfemur -2.54492 8.43611 -10.3525
ltibia 59.7404
lfoot -17.3014 -2.96954
ltoes -13.1667
150
root -1.35062 16.6023 -6.46393 169.411 19.0337 -173.884
lowerback 4.38315 -1.29241 4.09387
upperback 5.83687 -1.27015 2.00739
thorax 3.51978 -0.333611 -0.190258
lowerneck -6.72416 0.236006 -7.25336
upperneck -4.04481 1.24364 9.31727
head -0.213882 0.883833 4.41319
rclavicle -2.32951e-016 -3.97569e-016
rhumerus -51.8981 19.9728 -106.996
rradius 109.886
rwrist 10.3616
rhand -19.0454 12.556
rfingers 7.12502
rthumb 7.26134 -17.2994
lclavicle -2.32951e-016 -3.97569e-016
lhumerus -30.2427 -8.89074 83.2593
lradius 91.4746
lwrist 45.999
lhand -3.70964 -13.9022
lfingers 7.12502
lthumb 22.0328 14.8628
rfemur 5.81502 -2.72158 30.0547
rtibia 43.1116
rfoot -208.915 -188.483
rtoes -2.97906
lfemur -1.80187 8.16212 -10.6658
ltibia 58.1927
lfoot -18.0313 -3.4522
ltoes -11.2278
